<svg width="17" height="19" viewBox="0 0 17 19" fill="none" xmlns="http://www.w3.org/2000/svg">
<path fill-rule="evenodd" clip-rule="evenodd" d="M8.49961 7.79961C9.45439 7.79961 10.3701 7.42032 11.0452 6.74519C11.7203 6.07006 12.0996 5.15439 12.0996 4.19961C12.0996 3.24483 11.7203 2.32916 11.0452 1.65403C10.3701 0.978894 9.45439 0.599609 8.49961 0.599609C7.54483 0.599609 6.62916 0.978894 5.95403 1.65403C5.27889 2.32916 4.89961 3.24483 4.89961 4.19961C4.89961 5.15439 5.27889 6.07006 5.95403 6.74519C6.62916 7.42032 7.54483 7.79961 8.49961 7.79961ZM3.39826 18.5996C1.57647 18.5996 0.0418506 17.0682 0.739021 15.3851C1.16116 14.3659 1.7799 13.4399 2.55991 12.6599C3.33992 11.8799 4.26593 11.2612 5.28507 10.839C6.3042 10.4169 7.39651 10.1996 8.49961 10.1996C9.60271 10.1996 10.695 10.4169 11.7142 10.839C12.7333 11.2612 13.6593 11.8799 14.4393 12.6599C15.2193 13.4399 15.8381 14.3659 16.2602 15.3851C16.9574 17.0682 15.4228 18.5996 13.601 18.5996H3.39826Z" fill="#2186C7"/>
</svg>
