<svg width="1086" height="783" viewBox="0 0 1086 783" fill="none" xmlns="http://www.w3.org/2000/svg">
<g opacity="0.05">
<circle cx="937" cy="5" r="5" fill="#2D3891"/>
<circle cx="937" cy="33.6875" r="5" fill="#2D3891"/>
<circle cx="937" cy="62.375" r="5" fill="#2D3891"/>
<circle cx="937" cy="91.0625" r="5" fill="#2D3891"/>
<circle cx="937" cy="119.75" r="5" fill="#2D3891"/>
<circle cx="937" cy="148.438" r="5" fill="#2D3891"/>
<circle cx="965.688" cy="5" r="5" fill="#2D3891"/>
<circle cx="965.688" cy="33.6875" r="5" fill="#2D3891"/>
<circle cx="965.688" cy="62.375" r="5" fill="#2D3891"/>
<circle cx="965.688" cy="91.0625" r="5" fill="#2D3891"/>
<circle cx="965.688" cy="119.75" r="5" fill="#2D3891"/>
<circle cx="965.688" cy="148.438" r="5" fill="#2D3891"/>
<circle cx="994.375" cy="5" r="5" fill="#2D3891"/>
<circle cx="994.375" cy="33.6875" r="5" fill="#2D3891"/>
<circle cx="994.375" cy="62.375" r="5" fill="#2D3891"/>
<circle cx="994.375" cy="91.0625" r="5" fill="#2D3891"/>
<circle cx="994.375" cy="119.75" r="5" fill="#2D3891"/>
<circle cx="994.375" cy="148.438" r="5" fill="#2D3891"/>
<circle cx="1023.06" cy="5" r="5" fill="#2D3891"/>
<circle cx="1051.75" cy="5" r="5" fill="#2D3891"/>
<circle cx="1080.44" cy="5" r="5" fill="#2D3891"/>
<circle cx="1023.06" cy="33.6875" r="5" fill="#2D3891"/>
<circle cx="1051.75" cy="33.6875" r="5" fill="#2D3891"/>
<circle cx="1080.44" cy="33.6875" r="5" fill="#2D3891"/>
<circle cx="1023.06" cy="62.375" r="5" fill="#2D3891"/>
<circle cx="1051.75" cy="62.375" r="5" fill="#2D3891"/>
<circle cx="1080.44" cy="62.375" r="5" fill="#2D3891"/>
<circle cx="1023.06" cy="91.0625" r="5" fill="#2D3891"/>
<circle cx="1023.06" cy="119.75" r="5" fill="#2D3891"/>
<circle cx="1023.06" cy="148.438" r="5" fill="#2D3891"/>
<circle cx="1051.75" cy="91.0625" r="5" fill="#2D3891"/>
<circle cx="1051.75" cy="119.75" r="5" fill="#2D3891"/>
<circle cx="1051.75" cy="148.438" r="5" fill="#2D3891"/>
<circle cx="1080.44" cy="91.0625" r="5" fill="#2D3891"/>
<circle cx="1080.44" cy="119.75" r="5" fill="#2D3891"/>
<circle cx="1080.44" cy="148.438" r="5" fill="#2D3891"/>
</g>
<g opacity="0.05">
<circle cx="5" cy="634" r="5" fill="#2D3891"/>
<circle cx="5" cy="662.688" r="5" fill="#2D3891"/>
<circle cx="5" cy="691.375" r="5" fill="#2D3891"/>
<circle cx="5" cy="720.062" r="5" fill="#2D3891"/>
<circle cx="5" cy="748.75" r="5" fill="#2D3891"/>
<circle cx="5" cy="777.438" r="5" fill="#2D3891"/>
<circle cx="33.6875" cy="634" r="5" fill="#2D3891"/>
<circle cx="33.6875" cy="662.688" r="5" fill="#2D3891"/>
<circle cx="33.6875" cy="691.375" r="5" fill="#2D3891"/>
<circle cx="33.6875" cy="720.062" r="5" fill="#2D3891"/>
<circle cx="33.6875" cy="748.75" r="5" fill="#2D3891"/>
<circle cx="33.6875" cy="777.438" r="5" fill="#2D3891"/>
<circle cx="62.375" cy="634" r="5" fill="#2D3891"/>
<circle cx="62.375" cy="662.688" r="5" fill="#2D3891"/>
<circle cx="62.375" cy="691.375" r="5" fill="#2D3891"/>
<circle cx="62.375" cy="720.062" r="5" fill="#2D3891"/>
<circle cx="62.375" cy="748.75" r="5" fill="#2D3891"/>
<circle cx="62.375" cy="777.438" r="5" fill="#2D3891"/>
<circle cx="91.0625" cy="634" r="5" fill="#2D3891"/>
<circle cx="119.75" cy="634" r="5" fill="#2D3891"/>
<circle cx="148.438" cy="634" r="5" fill="#2D3891"/>
<circle cx="91.0625" cy="662.688" r="5" fill="#2D3891"/>
<circle cx="119.75" cy="662.688" r="5" fill="#2D3891"/>
<circle cx="148.438" cy="662.688" r="5" fill="#2D3891"/>
<circle cx="91.0625" cy="691.375" r="5" fill="#2D3891"/>
<circle cx="119.75" cy="691.375" r="5" fill="#2D3891"/>
<circle cx="148.438" cy="691.375" r="5" fill="#2D3891"/>
<circle cx="91.0625" cy="720.062" r="5" fill="#2D3891"/>
<circle cx="91.0625" cy="748.75" r="5" fill="#2D3891"/>
<circle cx="91.0625" cy="777.438" r="5" fill="#2D3891"/>
<circle cx="119.75" cy="720.062" r="5" fill="#2D3891"/>
<circle cx="119.75" cy="748.75" r="5" fill="#2D3891"/>
<circle cx="119.75" cy="777.438" r="5" fill="#2D3891"/>
<circle cx="148.438" cy="720.062" r="5" fill="#2D3891"/>
<circle cx="148.438" cy="748.75" r="5" fill="#2D3891"/>
<circle cx="148.438" cy="777.438" r="5" fill="#2D3891"/>
</g>
</svg>
