<svg width="160" height="63" viewBox="0 0 160 63" fill="none" xmlns="http://www.w3.org/2000/svg">
<path d="M12 1.5L8 0V51L32 62V61L12 49V1.5Z" fill="white"/>
<path d="M52 1.5L56 0V51L32 62V61L52 49V1.5Z" fill="white"/>
<path d="M5 4.5L0 3V54.5L31.5 62.5V61.5L5 53V4.5Z" fill="white"/>
<path d="M58 4.5L63 3V54.5L31.5 62.5V61.5L58 53V4.5Z" fill="white"/>
<path d="M24.5 14.5L18 14V50L24.5 53.5V14.5Z" fill="#CBCBCB"/>
<path d="M37 34.2405L43 34V51.3165L37 53V34.2405Z" fill="white" fill-opacity="0.6"/>
<path d="M34 26H28V54.5L31.5 56.5L34 54.5V26Z" fill="white" fill-opacity="0.6"/>
<path d="M71.106 25.3C70.898 25.3 70.794 25.2133 70.794 25.04V7.62C70.794 7.37733 70.898 7.256 71.106 7.256H75.006C76.6007 7.256 77.892 7.672 78.88 8.504C79.8853 9.31867 80.388 10.428 80.388 11.832C80.388 12.6293 80.1973 13.392 79.816 14.12C79.4347 14.848 78.8887 15.42 78.178 15.836C78.6287 16.0267 79.0187 16.278 79.348 16.59C79.6947 16.902 79.9807 17.2573 80.206 17.656C80.4313 18.0547 80.596 18.4533 80.7 18.852C80.8213 19.2507 80.882 19.58 80.882 19.84C80.882 21.5213 80.3013 22.856 79.14 23.844C77.9787 24.8147 76.488 25.3 74.668 25.3H71.106ZM73.628 9.986V14.614H74.928C75.7773 14.614 76.4187 14.406 76.852 13.99C77.3027 13.5567 77.528 12.9587 77.528 12.196C77.528 11.624 77.32 11.1127 76.904 10.662C76.5053 10.2113 75.8987 9.986 75.084 9.986H73.628ZM73.628 17.292V22.57H74.85C75.7513 22.57 76.4967 22.362 77.086 21.946C77.6753 21.53 77.97 20.8713 77.97 19.97C77.97 19.0687 77.6753 18.4013 77.086 17.968C76.4967 17.5173 75.7513 17.292 74.85 17.292H73.628ZM88.526 25.742C86.6713 25.742 85.302 24.8493 84.418 23.064C83.534 21.2787 83.092 19.0427 83.092 16.356C83.092 15.784 83.1527 14.9087 83.274 13.73C83.4127 12.534 83.6813 11.4333 84.08 10.428C84.496 9.40533 85.0507 8.57333 85.744 7.932C86.4547 7.29067 87.382 6.97 88.526 6.97C89.254 6.97 89.904 7.126 90.476 7.438C91.048 7.73267 91.5333 8.14 91.932 8.66C92.3307 9.16267 92.6513 9.752 92.894 10.428C93.154 11.104 93.362 11.8233 93.518 12.586C93.674 13.3487 93.778 14.12 93.83 14.9C93.882 15.68 93.908 16.1653 93.908 16.356C93.908 17.4307 93.7953 18.6007 93.57 19.866C93.3447 21.1313 93.0067 22.1973 92.556 23.064C92.1227 23.9307 91.5767 24.5893 90.918 25.04C90.2593 25.508 89.462 25.742 88.526 25.742ZM88.5 9.752C88.084 9.752 87.7027 9.89067 87.356 10.168C87.0267 10.428 86.7407 10.8527 86.498 11.442C86.2553 12.014 86.0647 12.768 85.926 13.704C85.8047 14.64 85.744 15.524 85.744 16.356C85.744 17.2053 85.8047 18.098 85.926 19.034C86.0647 19.97 86.2553 20.7327 86.498 21.322C86.7407 21.894 87.0267 22.3187 87.356 22.596C87.7027 22.856 88.084 22.986 88.5 22.986C88.8987 22.986 89.2627 22.856 89.592 22.596C89.9387 22.3187 90.2333 21.894 90.476 21.322C90.7187 20.7327 90.9007 19.97 91.022 19.034C91.1607 18.098 91.23 17.2053 91.23 16.356C91.23 15.524 91.1607 14.64 91.022 13.704C90.9007 12.768 90.7187 12.014 90.476 11.442C90.2333 10.8527 89.9387 10.428 89.592 10.168C89.2627 9.89067 88.8987 9.752 88.5 9.752ZM101.526 25.742C99.6713 25.742 98.302 24.8493 97.418 23.064C96.534 21.2787 96.092 19.0427 96.092 16.356C96.092 15.784 96.1527 14.9087 96.274 13.73C96.4127 12.534 96.6813 11.4333 97.08 10.428C97.496 9.40533 98.0507 8.57333 98.744 7.932C99.4547 7.29067 100.382 6.97 101.526 6.97C102.254 6.97 102.904 7.126 103.476 7.438C104.048 7.73267 104.533 8.14 104.932 8.66C105.331 9.16267 105.651 9.752 105.894 10.428C106.154 11.104 106.362 11.8233 106.518 12.586C106.674 13.3487 106.778 14.12 106.83 14.9C106.882 15.68 106.908 16.1653 106.908 16.356C106.908 17.4307 106.795 18.6007 106.57 19.866C106.345 21.1313 106.007 22.1973 105.556 23.064C105.123 23.9307 104.577 24.5893 103.918 25.04C103.259 25.508 102.462 25.742 101.526 25.742ZM101.5 9.752C101.084 9.752 100.703 9.89067 100.356 10.168C100.027 10.428 99.7407 10.8527 99.498 11.442C99.2553 12.014 99.0647 12.768 98.926 13.704C98.8047 14.64 98.744 15.524 98.744 16.356C98.744 17.2053 98.8047 18.098 98.926 19.034C99.0647 19.97 99.2553 20.7327 99.498 21.322C99.7407 21.894 100.027 22.3187 100.356 22.596C100.703 22.856 101.084 22.986 101.5 22.986C101.899 22.986 102.263 22.856 102.592 22.596C102.939 22.3187 103.233 21.894 103.476 21.322C103.719 20.7327 103.901 19.97 104.022 19.034C104.161 18.098 104.23 17.2053 104.23 16.356C104.23 15.524 104.161 14.64 104.022 13.704C103.901 12.768 103.719 12.014 103.476 11.442C103.233 10.8527 102.939 10.428 102.592 10.168C102.263 9.89067 101.899 9.752 101.5 9.752ZM117.932 25.3C117.776 25.3 117.663 25.274 117.594 25.222C117.542 25.1873 117.473 25.1007 117.386 24.962L114.292 17.292L112.68 19.658V24.988C112.68 25.196 112.602 25.3 112.446 25.3H110.054C109.898 25.3 109.82 25.196 109.82 24.988V7.542C109.82 7.35133 109.898 7.256 110.054 7.256H112.446C112.602 7.256 112.68 7.35133 112.68 7.542V15.316L113.278 14.276L117.438 7.464C117.542 7.32533 117.646 7.256 117.75 7.256H120.428C120.601 7.256 120.688 7.29067 120.688 7.36C120.705 7.412 120.679 7.48133 120.61 7.568L116.008 14.744L120.428 24.962C120.549 25.1873 120.489 25.3 120.246 25.3H117.932ZM70.794 51.3C70.7073 51.3 70.6293 51.2653 70.56 51.196C70.508 51.144 70.482 51.0747 70.482 50.988V33.568C70.482 33.4813 70.508 33.412 70.56 33.36C70.6293 33.2907 70.7073 33.256 70.794 33.256H73.056C73.1427 33.256 73.212 33.2907 73.264 33.36C73.3333 33.412 73.368 33.4813 73.368 33.568V40.588H77.606V33.568C77.606 33.4813 77.632 33.412 77.684 33.36C77.7533 33.2907 77.8313 33.256 77.918 33.256H80.18C80.2667 33.256 80.336 33.2907 80.388 33.36C80.4573 33.412 80.492 33.4813 80.492 33.568V50.988C80.492 51.0747 80.4573 51.144 80.388 51.196C80.336 51.2653 80.2667 51.3 80.18 51.3H77.918C77.71 51.3 77.606 51.196 77.606 50.988V43.318H73.368V50.988C73.368 51.196 73.264 51.3 73.056 51.3H70.794ZM84.496 51.3C84.1493 51.3 83.9413 51.2653 83.872 51.196C83.8027 51.144 83.768 50.9273 83.768 50.546V33.958C83.768 33.6113 83.794 33.412 83.846 33.36C83.9153 33.2907 84.1147 33.256 84.444 33.256H92.842C93.0327 33.256 93.1453 33.2907 93.18 33.36C93.2147 33.412 93.232 33.516 93.232 33.672V35.544C93.232 35.7173 93.206 35.8387 93.154 35.908C93.102 35.96 92.998 35.986 92.842 35.986H86.628V40.692H92.504C92.764 40.692 92.894 40.8307 92.894 41.108V42.98C92.894 43.2747 92.764 43.422 92.504 43.422H86.628V48.57H93.154C93.3967 48.57 93.518 48.7173 93.518 49.012V50.884C93.518 51.1613 93.3967 51.3 93.154 51.3H84.496ZM105.244 51.3C105.14 51.3 105.062 51.274 105.01 51.222C104.958 51.1873 104.906 51.066 104.854 50.858L103.788 46.36H99.238L98.172 50.858C98.1373 51.1007 98.094 51.2307 98.042 51.248C97.99 51.2827 97.9033 51.3 97.782 51.3H95.728C95.416 51.3 95.312 51.1527 95.416 50.858L99.888 33.542C99.94 33.4033 99.9747 33.3253 99.992 33.308C100.027 33.2733 100.131 33.256 100.304 33.256H102.722C102.878 33.256 102.973 33.2733 103.008 33.308C103.043 33.3253 103.086 33.4033 103.138 33.542L107.61 50.858C107.697 51.1527 107.593 51.3 107.298 51.3H105.244ZM99.862 43.63H103.138L101.5 36.428L99.862 43.63ZM110.314 51.3C110.227 51.3 110.149 51.2653 110.08 51.196C110.028 51.144 110.002 51.0747 110.002 50.988V33.568C110.002 33.4813 110.028 33.412 110.08 33.36C110.149 33.2907 110.227 33.256 110.314 33.256H112.628C112.715 33.256 112.784 33.2907 112.836 33.36C112.905 33.412 112.94 33.4813 112.94 33.568V48.57H119.18C119.388 48.57 119.492 48.6827 119.492 48.908V50.988C119.492 51.0747 119.457 51.144 119.388 51.196C119.336 51.2653 119.267 51.3 119.18 51.3H110.314ZM123.496 51.3C123.149 51.3 122.941 51.2653 122.872 51.196C122.803 51.144 122.768 50.9273 122.768 50.546V33.958C122.768 33.6113 122.794 33.412 122.846 33.36C122.915 33.2907 123.115 33.256 123.444 33.256H131.842C132.033 33.256 132.145 33.2907 132.18 33.36C132.215 33.412 132.232 33.516 132.232 33.672V35.544C132.232 35.7173 132.206 35.8387 132.154 35.908C132.102 35.96 131.998 35.986 131.842 35.986H125.628V40.692H131.504C131.764 40.692 131.894 40.8307 131.894 41.108V42.98C131.894 43.2747 131.764 43.422 131.504 43.422H125.628V48.57H132.154C132.397 48.57 132.518 48.7173 132.518 49.012V50.884C132.518 51.1613 132.397 51.3 132.154 51.3H123.496ZM144.192 51.3C144.001 51.3 143.871 51.2913 143.802 51.274C143.733 51.2567 143.655 51.1873 143.568 51.066L139.954 44.202H138.316V51.014C138.316 51.2047 138.203 51.3 137.978 51.3H135.768C135.56 51.3 135.456 51.2047 135.456 51.014V33.542C135.456 33.4553 135.482 33.386 135.534 33.334C135.603 33.282 135.681 33.256 135.768 33.256H139.642C141.549 33.256 143.013 33.7673 144.036 34.79C145.059 35.7953 145.57 37.0953 145.57 38.69C145.57 39.8513 145.301 40.8567 144.764 41.706C144.244 42.538 143.533 43.162 142.632 43.578L146.714 50.988C146.853 51.196 146.757 51.3 146.428 51.3H144.192ZM138.316 35.986V41.498H139.59C140.561 41.498 141.315 41.2727 141.852 40.822C142.389 40.354 142.658 39.652 142.658 38.716C142.658 37.7627 142.407 37.0693 141.904 36.636C141.401 36.2027 140.743 35.986 139.928 35.986H138.316ZM157.27 50.104C156.819 50.5373 156.247 50.91 155.554 51.222C154.878 51.534 154.245 51.7073 153.656 51.742C153.24 51.7767 152.824 51.7767 152.408 51.742C152.009 51.7247 151.576 51.6727 151.108 51.586C150.64 51.4993 150.215 51.4127 149.834 51.326C149.47 51.2393 149.193 51.1527 149.002 51.066C148.742 50.962 148.586 50.884 148.534 50.832C148.482 50.78 148.473 50.6587 148.508 50.468L148.69 48.674C148.725 48.5527 148.768 48.4747 148.82 48.44C148.889 48.4053 149.028 48.4313 149.236 48.518C149.409 48.5873 149.687 48.6827 150.068 48.804C150.467 48.9253 150.883 49.0207 151.316 49.09C151.767 49.1593 152.183 49.2027 152.564 49.22C152.945 49.2373 153.327 49.2027 153.708 49.116C154.436 48.9773 154.973 48.6913 155.32 48.258C155.667 47.8247 155.84 47.3047 155.84 46.698C155.84 46.1087 155.623 45.5713 155.19 45.086C154.757 44.5833 154.263 44.1413 153.708 43.76C152.963 43.2573 152.243 42.772 151.55 42.304C150.857 41.8187 150.285 41.342 149.834 40.874C149.383 40.3887 149.045 39.9033 148.82 39.418C148.612 38.9327 148.508 38.3953 148.508 37.806C148.508 37.182 148.664 36.5753 148.976 35.986C149.288 35.3967 149.704 34.8767 150.224 34.426C150.744 33.958 151.316 33.6027 151.94 33.36C152.581 33.1173 153.335 32.996 154.202 32.996C154.913 32.996 155.554 33.0567 156.126 33.178C156.698 33.282 157.192 33.3947 157.608 33.516C157.799 33.6027 157.903 33.6807 157.92 33.75C157.955 33.802 157.963 33.8973 157.946 34.036L157.634 35.7C157.582 35.856 157.513 35.9687 157.426 36.038C157.357 36.1073 157.218 36.1073 157.01 36.038C156.75 35.986 156.481 35.9253 156.204 35.856C155.927 35.7693 155.641 35.7 155.346 35.648C155.069 35.596 154.8 35.5613 154.54 35.544C154.28 35.5267 154.029 35.5267 153.786 35.544C153.006 35.648 152.417 35.9167 152.018 36.35C151.637 36.7833 151.446 37.3207 151.446 37.962C151.446 38.378 151.619 38.8027 151.966 39.236C152.313 39.6693 152.911 40.1633 153.76 40.718C154.731 41.3593 155.537 41.914 156.178 42.382C156.819 42.85 157.339 43.3093 157.738 43.76C158.137 44.1933 158.405 44.6353 158.544 45.086C158.7 45.5193 158.778 45.996 158.778 46.516C158.778 47.92 158.275 49.116 157.27 50.104Z" fill="white"/>
</svg>
